<svg width="273" height="264" viewBox="0 0 273 264" fill="none" xmlns="http://www.w3.org/2000/svg">
<path fill-rule="evenodd" clip-rule="evenodd" d="M126.888 0.358032C120.46 0.858032 118.674 1.71517 120.317 3.71517C122.888 6.85803 126.46 7.50088 139.603 7.42946C208.603 6.7866 270.46 65.2866 257.103 134.144C253.96 150.287 241.174 179.644 231.603 192.644C171.246 274.644 85.2455 278.001 28.5312 200.501C6.60266 170.501 6.9598 112.715 29.3169 77.0723C47.1027 48.7866 86.3169 14.7152 107.031 9.64375C113.174 8.14375 112.674 5.64374 105.888 4.00088C84.6027 -1.07055 30.1741 44.2152 11.9598 82.1437C-3.25448 113.858 -4.0402 159.929 10.1027 188.072C42.3169 251.929 130.603 282.929 186.388 249.929C226.388 226.215 250.317 195.929 266.603 148.501C294.174 68.0723 212.46 -5.78482 126.888 0.358032Z" "/>
</svg>
