    <svg viewBox="0 0 1726 146" fill="none" xmlns="http://www.w3.org/2000/svg" preserveAspectRatio="none">
            

            <rect x="2.48315" y="2.46313" width="1720" height="calc(100% - 6px)" rx="32" fill="white"/>
          <path
            d="M2.48291 31.4631C2.48291 41.4035 1.5 39.3764 1.5 49.9479M1.5 49.9479C1.5 60.5194 1.58245 79.7872 2.03325 92.7371C2.48405 105.687 2.48291 111.463 2.48291 111.463H3.48291C3.39301 110.247 2.79537 81.16 2.79537 78.1384C2.79537 75.1167 2.03325 59.7352 1.5 49.9479Z"
            stroke="black" stroke-width="3" stroke-miterlimit="10" stroke-linecap="round" stroke-linejoin="round" />
          <path
            d="M1722.98 108.463L1721.48 108.463C1721.48 126.945 1713.98 140.963 1690.48 141.463L1690.48 142.463C1719.48 142.463 1722.98 118.726 1722.98 108.463Z"
            stroke="black" stroke-width="3" stroke-linecap="round" stroke-linejoin="round" />
          <path d="M2.48315 31.4631C2.48315 21.2002 8.48317 2.46313 32.4832 2.46313" stroke="black" stroke-width="3"
            stroke-linecap="round" stroke-linejoin="round" />
          <path
            d="M3.48315 111.463C3.48315 131.16 19.9832 141.463 32.4832 141.463L32.4832 142.463C11.4832 142.463 2.48315 124.805 2.48315 111.463L3.48315 111.463Z"
            stroke="black" stroke-width="3" stroke-linecap="round" stroke-linejoin="round" />
          <path d="M1691.48 2.46313C1708.17 2.46313 1722.48 18.4631 1722.48 33.4631" stroke="black" stroke-width="3"
            stroke-linecap="round" stroke-linejoin="round" />
          <path
            d="M237.597 141.963C183.001 141.963 131.662 141.463 32.4832 141.463V142.463C194.863 142.463 184.636 142.963 229.05 142.963C381.094 142.963 1005.95 142.563 1050.9 142.563M237.597 141.963C237.597 141.963 448.902 143.386 662.523 143.777C846.642 144.115 1032.48 143.429 1086.23 143.429C1202.35 143.429 1174.89 141.468 1420.03 141.429C1603.3 141.399 1647.75 142.463 1690.48 142.463V141.463C1587.93 141.463 1564.01 140.563 1328.4 140.563C1247.2 140.563 1152.24 142.563 1050.9 142.563M237.597 141.963C358.466 141.963 508.3 143.143 664.366 143.306C793.229 143.44 926.34 142.563 1050.9 142.563"
            stroke="black" stroke-width="3" stroke-miterlimit="10" stroke-linecap="round" stroke-linejoin="round" />
          <path
            d="M1721.3 71.3964C1721.3 82.4896 1724.48 89.4692 1724.48 96.7225C1724.48 103.976 1722.98 107.678 1722.98 108.463H1721.48C1721.48 100.413 1722.98 100.413 1722.98 96.683C1722.98 86.345 1721.2 76.0554 1721.3 71.3964ZM1721.3 71.3964C1721.3 68.6542 1722.4 64.4126 1722.5 60.141C1722.59 56.2668 1721.68 52.3681 1721.7 49.541C1721.73 45.1684 1721.06 42.3834 1721.28 39.1678C1721.4 37.4817 1722.48 35.6771 1722.48 33.4631"
            stroke="black" stroke-width="3" stroke-miterlimit="10" stroke-linecap="round" stroke-linejoin="round" />
          <path
            d="M32.4832 2.46316C123.217 2.46316 202.38 1.73407 249.055 1.73407M249.055 1.73407C295.73 1.73407 502.968 1.5 590.717 1.5M249.055 1.73407C249.055 1.73407 350.273 2.46275 409.617 2.46275C468.962 2.46275 590.717 1.5 590.717 1.5M1691.48 2.46316C1598.62 2.46316 1650.06 2.73408 1557.82 2.73408C1505.25 2.73408 1440.93 3.34396 1348.72 3.5M837.713 3.46275C901.526 3.44021 1235.06 3.69234 1348.72 3.5M837.713 3.46275C771.717 3.48606 678.466 1.5 590.717 1.5M837.713 3.46275C837.713 3.46275 997.723 4.46275 1087.34 4.46275M1348.72 3.5C1348.72 3.5 1176.96 4.46275 1087.34 4.46275M590.717 1.5C644.501 1.5 769.198 2.5 837.713 2.5C906.228 2.5 1032.68 4.14183 1087.34 4.46275"
            stroke="black" stroke-width="3" stroke-miterlimit="10" stroke-linecap="round" stroke-linejoin="round" />
        </svg>