<svg width="1725" height="804" viewBox="0 0 1725 804" fill="none" xmlns="http://www.w3.org/2000/svg" preserveAspectRatio="none">
<rect x="2.48312" y="1.5" width="1720" height="800" rx="32" fill="none" class="frame-bg"/>

<path d="M2.48291 30.5C2.48291 122.449 1.5 103.697 1.5 201.484M1.5 201.484C1.5 299.271 1.58245 477.498 2.03325 597.284C2.48405 717.07 2.48291 770.5 2.48291 770.5H3.48291C3.39301 759.247 2.79537 490.196 2.79537 462.246C2.79537 434.296 2.03325 292.016 1.5 201.484Z"  stroke-width="3" stroke-miterlimit="10" stroke-linecap="round" stroke-linejoin="round"/>
<path d="M1722.98 767.5L1721.48 767.5C1721.48 785.982 1713.98 800 1690.48 800.5L1690.48 801.5C1719.48 801.5 1722.98 777.763 1722.98 767.5Z"  stroke-width="3" stroke-linecap="round" stroke-linejoin="round"/>
<path d="M2.48312 30.5C2.48312 20.237 8.48314 1.5 32.4831 1.5"  stroke-width="3" stroke-linecap="round" stroke-linejoin="round"/>
<path d="M3.48312 770.5C3.48312 790.197 15.4831 800.5 32.4831 800.5L32.4831 801.5C8.48314 801.5 2.48312 783.842 2.48312 770.5L3.48312 770.5Z"  stroke-width="3" stroke-linecap="round" stroke-linejoin="round"/>
<path d="M1691.48 1.5C1708.17 1.5 1722.48 17.5 1722.48 32.5"  stroke-width="3" stroke-linecap="round" stroke-linejoin="round"/>
<path d="M237.597 801C183.001 801 131.662 800.5 32.4832 800.5V801.5C194.863 801.5 184.636 802 229.05 802C381.094 802 1005.95 801.6 1050.9 801.6M237.597 801C237.597 801 970.115 802.466 1086.23 802.466C1202.35 802.466 1174.89 802.505 1420.03 802.466C1603.3 802.436 1647.75 801.5 1690.48 801.5V800.5C1587.93 800.5 1564.01 801.6 1328.4 801.6C1247.2 801.6 1152.24 801.6 1050.9 801.6M237.597 801C458.269 801 775.484 801.6 1050.9 801.6"  stroke-width="3" stroke-miterlimit="10" stroke-linecap="round" stroke-linejoin="round"/>
<path d="M1722.3 404.246C1722.3 512.96 1723.48 581.36 1723.48 652.441C1723.48 723.523 1722.98 759.804 1722.98 767.5H1721.48C1721.48 688.613 1721.98 688.613 1721.98 652.055C1721.98 550.743 1722.2 449.905 1722.3 404.246ZM1722.3 404.246C1722.3 352.999 1721.66 248.316 1721.7 190.063C1721.74 124.742 1722.48 95.5741 1722.48 32.5"  stroke-width="3" stroke-miterlimit="10" stroke-linecap="round" stroke-linejoin="round"/>
<path d="M32.4831 1.5C123.217 1.5 202.38 1.77092 249.055 1.77092M249.055 1.77092C295.73 1.77092 502.968 1.53685 590.717 1.53684M249.055 1.77092C249.055 1.77092 350.273 2.49959 409.617 2.49959C468.962 2.49959 590.717 1.53684 590.717 1.53684M1691.48 1.5C1598.62 1.5 1650.06 1.77092 1557.82 1.77092C1505.25 1.77092 1440.93 1.3808 1348.72 1.53684M837.713 2.49959C901.526 2.47705 1235.06 1.72918 1348.72 1.53684M837.713 2.49959C771.717 2.52291 678.466 1.53684 590.717 1.53684M837.713 2.49959C837.713 2.49959 997.723 2.49959 1087.34 2.49959M1348.72 1.53684C1348.72 1.53684 1176.96 2.49959 1087.34 2.49959M590.717 1.53684C644.501 1.53684 769.198 1.53684 837.713 1.53684C906.228 1.53684 1032.68 2.17868 1087.34 2.49959"  stroke-width="3" stroke-miterlimit="10" stroke-linecap="round" stroke-linejoin="round"/>
</svg>
