<svg width="24" height="24" viewBox="0 0 24 24" fill="none" xmlns="http://www.w3.org/2000/svg">
<g clip-path="url(#clip0_1030_2370)">
<path fill-rule="evenodd" clip-rule="evenodd" d="M23.68 10.48C23.4783 10.0874 23.1959 9.74181 22.8512 9.46606C22.5065 9.19031 22.1074 8.99058 21.68 8.87999C21.2435 8.75576 20.7836 8.73722 20.3384 8.8259C19.8933 8.91458 19.4756 9.10794 19.12 9.38999C18.5721 9.83449 18.1718 10.4346 17.9719 11.1112C17.7719 11.7878 17.7817 12.5091 18 13.18C18.41 14.25 19.48 15.11 21.39 14.92C21.4815 14.9004 21.5629 14.8485 21.6193 14.7738C21.6757 14.6992 21.7034 14.6068 21.6973 14.5134C21.6913 14.4201 21.6518 14.332 21.5862 14.2653C21.5207 14.1986 21.4333 14.1576 21.34 14.15C19.99 14.15 19.24 13.61 19.01 12.84C18.9083 12.3809 18.9485 11.9017 19.1253 11.4659C19.3021 11.0302 19.6072 10.6584 20 10.4C20.2048 10.2426 20.4422 10.1331 20.6949 10.0794C20.9475 10.0258 21.209 10.0294 21.46 10.09C21.7317 10.1442 21.99 10.2516 22.22 10.4061C22.4499 10.5606 22.6471 10.759 22.8 10.99C23.0682 11.4121 23.1846 11.9129 23.13 12.41C23.0909 12.9195 22.9032 13.4062 22.59 13.81C22.5559 13.8376 22.5275 13.8716 22.5065 13.9101C22.4855 13.9487 22.4723 13.991 22.4677 14.0346C22.463 14.0783 22.467 14.1224 22.4795 14.1645C22.4919 14.2066 22.5124 14.2459 22.54 14.28C22.5676 14.3141 22.6016 14.3425 22.6402 14.3635C22.6787 14.3845 22.721 14.3977 22.7647 14.4023C22.8083 14.407 22.8524 14.403 22.8945 14.3906C22.9366 14.3782 22.9759 14.3576 23.01 14.33C23.5191 13.85 23.8682 13.2251 24.01 12.54C24.134 11.8357 24.0178 11.1103 23.68 10.48Z" fill="black"/>
<path fill-rule="evenodd" clip-rule="evenodd" d="M12.38 8.99999C11.9435 8.87576 11.4836 8.85721 11.0384 8.9459C10.5933 9.03458 10.1756 9.22794 9.82002 9.50999C9.31885 9.93492 8.95595 10.4998 8.77779 11.1322C8.59964 11.7647 8.61434 12.4359 8.82002 13.06C9.02287 13.6763 9.43203 14.2038 9.97853 14.5536C10.525 14.9033 11.1754 15.0539 11.82 14.98C11.9115 14.9652 11.9947 14.9183 12.0547 14.8478C12.1148 14.7773 12.1478 14.6876 12.1478 14.595C12.1478 14.5023 12.1148 14.4127 12.0547 14.3422C11.9947 14.2716 11.9115 14.2248 11.82 14.21C11.3586 14.2403 10.9015 14.1049 10.5312 13.828C10.1608 13.5512 9.90151 13.1511 9.80002 12.7C9.6959 12.2899 9.71746 11.858 9.8619 11.4604C10.0063 11.0627 10.267 10.7176 10.61 10.47C10.8171 10.3135 11.0567 10.2053 11.311 10.1534C11.5654 10.1015 11.8281 10.1072 12.08 10.17C12.3501 10.2212 12.6067 10.3276 12.8338 10.4825C13.0609 10.6373 13.2537 10.8373 13.4 11.07C13.6764 11.485 13.7969 11.9846 13.74 12.48C13.7033 12.99 13.5153 13.4774 13.2 13.88C13.1311 13.9357 13.0871 14.0165 13.0777 14.1046C13.0683 14.1928 13.0943 14.281 13.15 14.35C13.2057 14.4189 13.2865 14.463 13.3747 14.4723C13.4628 14.4817 13.5511 14.4557 13.62 14.4C14.1299 13.9247 14.4794 13.3027 14.62 12.62C14.7693 11.9214 14.6814 11.1929 14.37 10.55C14.166 10.1662 13.8833 9.82977 13.5404 9.56269C13.1975 9.2956 12.8021 9.10386 12.38 8.99999Z" fill="black"/>
<path fill-rule="evenodd" clip-rule="evenodd" d="M3.71002 9C3.27424 8.87439 2.81482 8.85422 2.3697 8.94116C1.92459 9.0281 1.50652 9.21965 1.15002 9.5C0.578573 9.9743 0.188017 10.631 0.0441252 11.3596C-0.099767 12.0882 0.0117949 12.8441 0.360024 13.5C0.645338 14.1521 1.1613 14.6761 1.80901 14.9713C2.45672 15.2666 3.19062 15.3124 3.87002 15.1C3.96581 15.0698 4.04675 15.0048 4.09677 14.9177C4.14679 14.8306 4.16223 14.7279 4.14002 14.63C4.12842 14.5816 4.10716 14.536 4.07752 14.4959C4.04787 14.4559 4.01045 14.4223 3.96749 14.3971C3.92454 14.3719 3.87694 14.3556 3.82754 14.3492C3.77815 14.3428 3.72797 14.3465 3.68002 14.36C3.19052 14.4678 2.67839 14.3878 2.24503 14.1359C1.81168 13.8841 1.4887 13.4787 1.34002 13C1.14537 12.5763 1.0987 12.0996 1.20751 11.6462C1.31632 11.1928 1.57429 10.7892 1.94002 10.5C2.14584 10.3407 2.38459 10.2293 2.63888 10.174C2.89318 10.1186 3.15662 10.1207 3.41002 10.18C3.6833 10.2335 3.94329 10.3406 4.17499 10.495C4.40669 10.6495 4.60552 10.8483 4.76002 11.08C4.99161 11.4334 5.1134 11.8475 5.11002 12.27C5.10576 12.7191 4.99616 13.161 4.79002 13.56C4.75258 13.6364 4.74512 13.724 4.76912 13.8056C4.79311 13.8872 4.84682 13.9568 4.91964 14.0008C4.99246 14.0447 5.07911 14.0598 5.16249 14.043C5.24586 14.0262 5.31991 13.9787 5.37002 13.91C5.67928 13.4343 5.87437 12.8936 5.94002 12.33C6.01479 11.7363 5.91032 11.1338 5.64002 10.6C5.44901 10.2125 5.17836 9.86973 4.84579 9.59401C4.51321 9.3183 4.12619 9.11589 3.71002 9Z" fill="black"/>
</g>
<defs>
<clipPath id="clip0_1030_2370">
<rect width="24" height="24" fill="white"/>
</clipPath>
</defs>
</svg>
