<svg width="24" height="24" viewBox="0 0 24 24" fill="none" xmlns="http://www.w3.org/2000/svg">
<g clip-path="url(#clip0_1030_2597)">
<path fill-rule="evenodd" clip-rule="evenodd" d="M19.54 15.54C18.8558 15.4859 18.1683 15.5894 17.5304 15.8425C16.8924 16.0956 16.321 16.4916 15.86 17C15.3322 17.6019 14.9824 18.3389 14.8499 19.1284C14.7175 19.918 14.8075 20.7288 15.11 21.47C15.4278 22.1859 15.9364 22.8006 16.5802 23.2469C17.2239 23.6931 17.9781 23.9536 18.76 24C19.0926 24.0318 19.4274 24.0318 19.76 24C20.0999 23.9852 20.4362 23.9246 20.76 23.82C20.8049 23.8074 20.8469 23.7859 20.8835 23.7568C20.92 23.7277 20.9504 23.6916 20.9727 23.6506C20.9951 23.6096 21.009 23.5645 21.0137 23.518C21.0184 23.4716 21.0137 23.4246 21 23.38C20.9874 23.335 20.9659 23.293 20.9368 23.2565C20.9077 23.2199 20.8716 23.1896 20.8306 23.1672C20.7896 23.1449 20.7445 23.1309 20.698 23.1263C20.6516 23.1216 20.6046 23.1262 20.56 23.14C20.296 23.2123 20.0236 23.2492 19.75 23.25C19.4724 23.258 19.1946 23.2413 18.92 23.2C18.3074 23.1341 17.7242 22.903 17.2328 22.5313C16.7414 22.1597 16.3602 21.6615 16.13 21.09C15.9276 20.5301 15.885 19.9249 16.0069 19.3421C16.1287 18.7593 16.4102 18.222 16.82 17.79C17.1662 17.4205 17.5906 17.133 18.0621 16.9485C18.5337 16.7639 19.0405 16.6871 19.5456 16.7235C20.0506 16.7599 20.5412 16.9087 20.9814 17.159C21.4216 17.4092 21.8003 17.7546 22.09 18.17C22.3791 18.573 22.5552 19.046 22.6 19.54C22.6551 20.0563 22.6144 20.5784 22.48 21.08C22.4248 21.2959 22.3512 21.5067 22.26 21.71C22.1641 21.9046 22.0538 22.0918 21.93 22.27C21.904 22.302 21.8846 22.3389 21.873 22.3784C21.8614 22.418 21.8579 22.4595 21.8625 22.5005C21.8672 22.5415 21.88 22.5811 21.9001 22.6171C21.9203 22.6531 21.9474 22.6846 21.98 22.71C22.044 22.7594 22.1248 22.7818 22.2051 22.7725C22.2855 22.7631 22.359 22.7228 22.41 22.66C22.5628 22.4543 22.6936 22.2331 22.8 22C22.9215 21.773 23.0219 21.5353 23.1 21.29C23.2955 20.7039 23.3836 20.0874 23.36 19.47C23.3431 18.8233 23.1569 18.1923 22.82 17.64C22.4771 17.0565 22.0013 16.5623 21.4314 16.1974C20.8614 15.8325 20.2134 15.6072 19.54 15.54Z" fill="black"/>
<path fill-rule="evenodd" clip-rule="evenodd" d="M15.16 6C15.4858 6.68662 15.9898 7.27331 16.6195 7.69894C17.2491 8.12457 17.9814 8.37357 18.74 8.42C19.0723 8.45698 19.4077 8.45698 19.74 8.42C20.0799 8.40515 20.4163 8.34461 20.74 8.24C20.7847 8.22686 20.8263 8.20507 20.8625 8.17585C20.8987 8.14663 20.9288 8.11056 20.9511 8.0697C20.9734 8.02884 20.9874 7.984 20.9924 7.93772C20.9973 7.89144 20.9931 7.84465 20.98 7.8C20.9669 7.75535 20.9451 7.71372 20.9159 7.6775C20.8866 7.64127 20.8506 7.61115 20.8097 7.58887C20.7689 7.56658 20.724 7.55256 20.6777 7.54761C20.6315 7.54265 20.5847 7.54686 20.54 7.56C20.2752 7.62799 20.0034 7.66491 19.73 7.67C19.452 7.67891 19.1738 7.6588 18.9 7.61C18.2877 7.54253 17.7054 7.30953 17.2156 6.93601C16.7258 6.5625 16.3471 6.06259 16.12 5.49C15.9237 4.92781 15.8861 4.32239 16.0113 3.74023C16.1366 3.15807 16.4198 2.62169 16.83 2.19C17.1815 1.84373 17.6039 1.57787 18.0681 1.41075C18.5324 1.24363 19.0273 1.17924 19.5188 1.22203C20.0104 1.26481 20.4868 1.41375 20.9151 1.65856C21.3435 1.90337 21.7136 2.23822 22 2.64C22.2933 3.03972 22.4792 3.50796 22.54 4C22.5852 4.51643 22.5447 5.03679 22.42 5.54C22.3616 5.75621 22.2846 5.96699 22.19 6.17C22.0945 6.36694 21.9807 6.55444 21.85 6.73C21.8244 6.76217 21.8054 6.79907 21.794 6.8386C21.7827 6.87812 21.7792 6.91949 21.7839 6.96035C21.7885 7.00121 21.8012 7.04075 21.8211 7.07672C21.841 7.11269 21.8678 7.14439 21.9 7.17C21.9322 7.1956 21.9691 7.21462 22.0086 7.22597C22.0481 7.23731 22.0895 7.24077 22.1304 7.23612C22.2129 7.22675 22.2883 7.18497 22.34 7.12C22.5082 6.91872 22.6556 6.70094 22.78 6.47C22.9064 6.23927 23.0135 5.99844 23.1 5.75C23.2839 5.18531 23.3718 4.59376 23.36 4C23.348 3.3539 23.1651 2.72251 22.83 2.17C22.4995 1.5721 22.0297 1.0627 21.4605 0.684954C20.8912 0.307207 20.2393 0.0722506 19.56 -4.69387e-06C18.8765 -0.0601361 18.1883 0.0375326 17.5485 0.285468C16.9088 0.533404 16.3345 0.92498 15.87 1.43C15.4075 1.94902 15.0755 2.57089 14.9016 3.24396C14.7277 3.91704 14.7168 4.62189 14.87 5.3L15.16 6Z" fill="black"/>
<path fill-rule="evenodd" clip-rule="evenodd" d="M13.7 5.87999C12.47 6.52999 12.45 6.59999 11.25 7.30999C10.85 7.53999 10.45 7.79999 10.06 8.05999L8.50998 9.14999C7.84998 9.89999 7.99998 10.21 8.99998 9.99999C9.38998 9.78999 9.92998 9.47999 10.68 9.04999C11.09 8.81999 11.49 8.56999 11.88 8.30999C12.99 7.56999 13.13 7.30999 14.23 6.57999C14.8 5.92999 14.63 5.69999 13.7 5.87999Z" fill="black"/>
<path fill-rule="evenodd" clip-rule="evenodd" d="M8.42001 18C8.65001 18.14 8.91001 18.28 9.17001 18.42C9.64001 18.66 10.17 18.9 10.66 19.11C11.5245 19.4653 12.4178 19.7463 13.33 19.95C13.4202 19.9752 13.5167 19.9635 13.5982 19.9176C13.6798 19.8716 13.7398 19.7952 13.765 19.705C13.7902 19.6148 13.7785 19.5183 13.7326 19.4368C13.6867 19.3552 13.6102 19.2952 13.52 19.27C13.04 19.09 12.27 18.63 11.38 18.17C10.9 17.93 10.38 17.67 9.9 17.47L9.52001 17.33C7.80001 17 7.46001 17.22 8.42001 18Z" fill="black"/>
<path fill-rule="evenodd" clip-rule="evenodd" d="M7.69 16.74C7.81 16.64 7.95 16.55 8.06 16.44C8.30058 16.2137 8.51219 15.9584 8.69 15.68C8.71657 15.642 8.73532 15.5991 8.74518 15.5539C8.75503 15.5086 8.7558 15.4618 8.74743 15.4162C8.73905 15.3706 8.72171 15.3271 8.6964 15.2883C8.67109 15.2495 8.63833 15.2161 8.6 15.19C8.56142 15.1639 8.51802 15.1458 8.47234 15.1367C8.42666 15.1276 8.37962 15.1277 8.33399 15.137C8.28835 15.1463 8.24503 15.1647 8.20657 15.1909C8.16811 15.2172 8.13528 15.2509 8.11 15.29C7.9449 15.5091 7.7572 15.7102 7.55 15.89C7.33674 16.0682 7.10932 16.2287 6.87 16.37C6.35575 16.7079 5.75924 16.8994 5.14442 16.9241C4.5296 16.9487 3.91967 16.8056 3.38 16.51C2.87052 16.2004 2.45569 15.757 2.18064 15.2281C1.90559 14.6991 1.78086 14.1049 1.82 13.51C1.85507 13.0135 1.99969 12.5308 2.24349 12.0969C2.48728 11.6629 2.82419 11.2883 3.23 11C3.64359 10.6939 4.12285 10.4884 4.62972 10.3999C5.1366 10.3113 5.65714 10.3422 6.15 10.49C6.62401 10.6182 7.05541 10.8702 7.4 11.22C7.77136 11.5858 8.07295 12.0161 8.29 12.49C8.38262 12.6938 8.45951 12.9044 8.52 13.12C8.57206 13.3334 8.60552 13.5509 8.62 13.77C8.61998 13.8103 8.62806 13.8501 8.64376 13.8872C8.65946 13.9242 8.68245 13.9578 8.71138 13.9857C8.7403 14.0137 8.77457 14.0356 8.81213 14.0501C8.84968 14.0646 8.88977 14.0713 8.93 14.07C9.01222 14.07 9.09107 14.0373 9.14921 13.9792C9.20734 13.9211 9.24 13.8422 9.24 13.76C9.2393 13.5051 9.21587 13.2508 9.17 13C9.13615 12.729 9.07928 12.4614 9 12.2C8.7618 11.6248 8.42319 11.0966 8 10.64L7.92 10.55L7.31 10C7.03843 9.8108 6.74238 9.65941 6.43 9.55C5.79645 9.31671 5.11687 9.23589 4.44627 9.31407C3.77567 9.39225 3.1329 9.62723 2.57 10C2.0001 10.3911 1.52841 10.9088 1.19186 11.5125C0.855302 12.1162 0.663002 12.7896 0.630004 13.48C0.604447 14.2803 0.802358 15.072 1.20154 15.7662C1.60073 16.4603 2.18541 17.0295 2.89 17.41C3.5316 17.7384 4.24721 17.8953 4.96736 17.8656C5.68751 17.8358 6.38772 17.6203 7 17.24L7.69 16.74Z" fill="black"/>
</g>
<defs>
<clipPath id="clip0_1030_2597">
<rect width="24" height="24" fill="white"/>
</clipPath>
</defs>
</svg>
